<?xml version="1.0" encoding="utf-8"?>
<!-- Generator: Adobe Illustrator 23.0.6, SVG Export Plug-In . SVG Version: 6.00 Build 0)  -->
<svg version="1.1" id="Layer_1" xmlns="http://www.w3.org/2000/svg" xmlns:xlink="http://www.w3.org/1999/xlink" x="0px" y="0px"
	 viewBox="0 0 52.6 45.6" style="enable-background:new 0 0 52.6 45.6;" xml:space="preserve">
<style type="text/css">
	.st0{fill:#292FE5;}
</style>
<title>artPeacesLogo</title>
<path class="st0" d="M5,41.9H1.8l-1.3,3.5H0L3.4,36l3.4,9.4H6.3L5,41.9z M4.8,41.4l-1.4-3.9L2,41.4H4.8z"/>
<path class="st0" d="M8,39.8h0.5v1c0.1-0.2,0.2-0.3,0.4-0.4c0.4-0.4,0.9-0.7,1.4-0.7v0.6c-0.4,0-0.8,0.2-1,0.5
	c-0.5,0.5-0.8,1.1-0.8,1.8v2.9H8V39.8z"/>
<path class="st0" d="M12.5,39.8v-2.4H13v2.4h1.2v0.5H13v5.1h-0.5v-5.1h-1.2v-0.5H12.5z"/>
<path class="st0" d="M16.1,42.2v3.2h-0.5v-9.2H18c0.7,0.1,1.3,0.4,1.8,0.9c1.2,1.2,1.2,3.1,0,4.3c-0.6,0.6-1.3,0.9-2.1,0.9
	L16.1,42.2z M16.1,36.8v5h1.6c1.4,0,2.5-1.1,2.5-2.5c0-1.4-1.1-2.5-2.5-2.5H16.1z"/>
<path class="st0" d="M22.4,44.4c1,0.9,2.6,0.9,3.6-0.1c0.1-0.1,0.1-0.1,0.2-0.2l0.5,0.2c-0.1,0.1-0.2,0.3-0.3,0.4
	c-1.2,1.2-3.2,1.2-4.5,0c-1.2-1.2-1.2-3.2,0-4.5c1.1-1.1,2.9-1.2,4.2-0.2c0.1,0.1,0.2,0.2,0.3,0.2l0.1,0.1l-0.4,0.4L22.4,44.4z
	 M25.7,40.3c-1.2-0.8-2.8-0.6-3.6,0.6c-0.7,0.9-0.7,2.2,0,3.1L25.7,40.3z"/>
<path class="st0" d="M34.2,45.4h-0.5v-1.2c-0.1,0.1-0.2,0.3-0.3,0.4c-1.2,1.2-3.2,1.2-4.5,0c-1.2-1.2-1.2-3.2,0-4.5
	c1.2-1.2,3.2-1.2,4.5,0c0,0,0,0,0,0c0.1,0.1,0.2,0.2,0.3,0.4v-0.8h0.5L34.2,45.4z M33.7,43v-1c-0.3-1.4-1.6-2.3-3-2
	c-1.4,0.3-2.3,1.6-2,3c0.3,1.4,1.6,2.3,3,2C32.7,44.8,33.5,44,33.7,43z"/>
<path class="st0" d="M40.8,44.1l0.5,0.2c-0.1,0.1-0.2,0.3-0.3,0.4c-1.2,1.2-3.2,1.2-4.5,0c-1.2-1.2-1.2-3.2,0-4.5
	c1.2-1.2,3.2-1.2,4.5,0c0,0,0,0,0,0c0.1,0.1,0.2,0.3,0.3,0.4l-0.5,0.2c-0.1-0.1-0.1-0.1-0.2-0.2c-1-1-2.7-1-3.7,0s-1,2.7,0,3.7
	c1,1,2.7,1,3.7,0c0,0,0,0,0,0C40.6,44.2,40.7,44.2,40.8,44.1z"/>
<path class="st0" d="M43.8,44.4c0.5,0.4,1.1,0.7,1.7,0.7c0.7,0,1.4-0.3,1.8-0.8c0.1-0.1,0.1-0.1,0.2-0.2l0.5,0.2
	c-0.1,0.1-0.2,0.3-0.3,0.4c-1.2,1.2-3.2,1.2-4.5,0c-1.2-1.2-1.2-3.2,0-4.5c1.1-1.1,2.9-1.2,4.2-0.2c0.1,0.1,0.2,0.2,0.3,0.2
	c0,0,0.1,0.1,0.1,0.1l-0.4,0.4L43.8,44.4z M47.1,40.3c-1.2-0.9-2.8-0.6-3.7,0.6c-0.7,0.9-0.7,2.2,0,3.1L47.1,40.3z"/>
<path class="st0" d="M51,42.5c-0.3-0.2-0.6-0.4-0.9-0.6c-0.3-0.2-0.4-0.6-0.4-1c0-0.4,0.1-0.7,0.4-1c0.2-0.3,0.6-0.4,1-0.4
	c0.3,0,0.7,0.1,0.9,0.4c0.2,0.2,0.4,0.5,0.4,0.8v0L51.9,41c0-0.2-0.1-0.5-0.3-0.7c-0.2-0.1-0.4-0.2-0.6-0.2c-0.5,0-0.8,0.4-0.8,0.8
	c0,0.2,0.1,0.4,0.2,0.6c0.2,0.2,0.4,0.3,0.6,0.4c0.4,0.2,0.7,0.4,1,0.7c0.7,0.7,0.7,1.7,0,2.4c-0.7,0.7-1.7,0.7-2.4,0l0,0
	c-0.3-0.3-0.5-0.7-0.5-1.1l0.5-0.1c0,0.3,0.1,0.6,0.3,0.8c0.5,0.5,1.2,0.5,1.6,0c0.5-0.5,0.5-1.2,0-1.6l0,0
	C51.5,42.9,51.3,42.7,51,42.5z"/>
<path class="st0" d="M29.4,33.1c-4.9-0.1-9.5-1.9-13.1-5.2l13.1-13.1V33.1z"/>
<path class="st0" d="M9.6,13.8c0.1,4.9,1.9,9.5,5.2,13.1L28,13.8H9.6z"/>
<path class="st0" d="M40.6,4.2c4.3,5,3.8,12.6-1.2,16.9c-2,1.7-4.4,2.7-7,2.9V12.4L40.6,4.2z"/>
<path class="st0" d="M31.2,11.1H19.5C20,4.5,25.7-0.4,32.3,0c2.6,0.2,5.1,1.2,7,2.9L31.2,11.1z"/>
</svg>
