<?xml version="1.0" encoding="utf-8"?>
<!-- Generator: Adobe Illustrator 23.0.6, SVG Export Plug-In . SVG Version: 6.00 Build 0)  -->
<svg version="1.1" id="Layer_1" xmlns="http://www.w3.org/2000/svg" xmlns:xlink="http://www.w3.org/1999/xlink" x="0px" y="0px"
	 viewBox="0 0 21.4 18.5" style="enable-background:new 0 0 21.4 18.5;" xml:space="preserve">
<style type="text/css">
	.st0{fill:#292FE5;}
</style>
<title>artPeacesLogo</title>
<path class="st0" d="M2,17H0.7l-0.5,1.4H0l1.4-3.8l1.4,3.8H2.6L2,17z M2,16.8l-0.6-1.6l-0.6,1.6H2z"/>
<path class="st0" d="M3.3,16.2h0.2v0.4c0-0.1,0.1-0.1,0.1-0.2c0.1-0.2,0.3-0.3,0.6-0.3v0.2c-0.2,0-0.3,0.1-0.4,0.2
	c-0.2,0.2-0.3,0.4-0.3,0.7v1.2H3.3V16.2z"/>
<path class="st0" d="M5.1,16.2v-1h0.2v1h0.5v0.2H5.3v2.1H5.1v-2.1H4.6v-0.2H5.1z"/>
<path class="st0" d="M6.5,17.2v1.3H6.3v-3.7h1c0.3,0,0.5,0.2,0.7,0.4c0.5,0.5,0.5,1.2,0,1.7c-0.2,0.2-0.5,0.4-0.9,0.4L6.5,17.2z
	 M6.5,14.9v2h0.6c0.6,0,1-0.4,1-1s-0.4-1-1-1L6.5,14.9L6.5,14.9z"/>
<path class="st0" d="M9.1,18c0.4,0.4,1.1,0.4,1.5,0c0,0,0,0,0.1-0.1l0.2,0.1c0,0.1-0.1,0.1-0.1,0.2c-0.5,0.5-1.3,0.5-1.8,0
	c-0.5-0.5-0.5-1.3,0-1.8c0.5-0.5,1.2-0.5,1.7-0.1c0,0,0.1,0.1,0.1,0.1l0,0l-0.2,0.2L9.1,18z M10.4,16.4c-0.5-0.3-1.1-0.2-1.5,0.2
	c-0.3,0.4-0.3,0.9,0,1.2L10.4,16.4z"/>
<path class="st0" d="M13.9,18.5h-0.2V18c0,0.1-0.1,0.1-0.1,0.2c-0.5,0.5-1.3,0.5-1.8,0s-0.5-1.3,0-1.8s1.3-0.5,1.8,0l0,0
	c0,0,0.1,0.1,0.1,0.2v-0.3h0.2V18.5z M13.7,17.4V17c-0.1-0.6-0.7-0.9-1.2-0.8s-0.9,0.7-0.8,1.2c0.1,0.6,0.7,0.9,1.2,0.8
	C13.3,18.2,13.6,17.9,13.7,17.4z"/>
<path class="st0" d="M16.5,17.9l0.2,0.1c0,0.1-0.1,0.1-0.1,0.2c-0.5,0.5-1.3,0.5-1.8,0c-0.5-0.5-0.5-1.3,0-1.8
	c0.5-0.5,1.3-0.5,1.8,0l0,0c0,0,0.1,0.1,0.1,0.2l-0.2,0.1c0,0,0-0.1-0.1-0.1c-0.4-0.4-1.1-0.4-1.5,0c-0.4,0.4-0.4,1.1,0,1.5
	C15.4,18.4,16.1,18.4,16.5,17.9L16.5,17.9C16.5,18,16.5,17.9,16.5,17.9z"/>
<path class="st0" d="M17.8,18c0.2,0.2,0.4,0.3,0.7,0.3c0.3,0,0.6-0.1,0.7-0.3c0,0,0,0,0.1-0.1l0.2,0.1c0,0.1-0.1,0.1-0.1,0.2
	c-0.5,0.5-1.3,0.5-1.8,0c-0.5-0.5-0.5-1.3,0-1.8c0.5-0.5,1.2-0.5,1.7-0.1c0,0,0.1,0.1,0.1,0.1c0,0,0,0,0,0l-0.2,0.2L17.8,18z
	 M19.1,16.4c-0.5-0.3-1.1-0.2-1.5,0.2c-0.3,0.4-0.3,0.9,0,1.3L19.1,16.4z"/>
<path class="st0" d="M20.7,17.3c-0.1-0.1-0.3-0.1-0.4-0.2c-0.1-0.1-0.2-0.2-0.2-0.4c0-0.1,0.1-0.3,0.2-0.4c0.1-0.1,0.2-0.2,0.4-0.2
	c0.1,0,0.3,0,0.4,0.1c0.1,0.1,0.1,0.2,0.1,0.3v0l-0.2,0.1c0-0.1,0-0.2-0.1-0.3c-0.1-0.1-0.1-0.1-0.2-0.1c-0.2,0-0.3,0.1-0.3,0.3
	c0,0.1,0,0.2,0.1,0.2c0.1,0.1,0.2,0.1,0.2,0.2c0.1,0.1,0.3,0.2,0.4,0.3c0.3,0.3,0.3,0.7,0,1c-0.3,0.3-0.7,0.3-1,0l0,0
	C20.1,18.2,20,18,20,17.9l0.2,0c0,0.1,0,0.2,0.1,0.3c0.2,0.2,0.5,0.2,0.7,0c0.2-0.2,0.2-0.5,0-0.7l0,0
	C20.9,17.4,20.8,17.3,20.7,17.3z"/>
<path class="st0" d="M11.9,13.5c-2,0-3.9-0.8-5.3-2.1L11.9,6V13.5z"/>
<path class="st0" d="M3.9,5.6c0,2,0.8,3.9,2.1,5.3l5.3-5.3C11.4,5.6,3.9,5.6,3.9,5.6z"/>
<path class="st0" d="M16.5,1.7c1.8,2,1.5,5.1-0.5,6.9c-0.8,0.7-1.8,1.1-2.8,1.2V5L16.5,1.7z"/>
<path class="st0" d="M12.7,4.5H7.9c0.2-2.7,2.5-4.7,5.2-4.5c1,0.1,2.1,0.5,2.9,1.2L12.7,4.5z"/>
</svg>
