<?xml version="1.0" encoding="utf-8"?>
<!-- Generator: Adobe Illustrator 23.0.6, SVG Export Plug-In . SVG Version: 6.00 Build 0)  -->
<svg version="1.1" id="Layer_1" xmlns="http://www.w3.org/2000/svg" xmlns:xlink="http://www.w3.org/1999/xlink" x="0px" y="0px"
	 viewBox="0 0 214.1 185.6" style="enable-background:new 0 0 214.1 185.6;" xml:space="preserve">
<style type="text/css">
	.st0{fill:#292FE5;}
</style>
<title>artPeacesLogo</title>
<path class="st0" d="M20.5,170.5h-13l-5.2,14.4H0l14-38.4l13.9,38.4h-2.2L20.5,170.5z M19.7,168.4L14,152.7l-5.8,15.7H19.7z"/>
<path class="st0" d="M32.6,161.9h2.1v4.2c0.5-0.6,1-1.2,1.5-1.8c1.5-1.7,3.5-2.7,5.8-2.9v2.3c-1.6,0.2-3.1,1-4.1,2.2
	c-2,1.9-3.1,4.4-3.2,7.1v11.9h-2.1V161.9z"/>
<path class="st0" d="M50.9,161.9v-9.8H53v9.8h4.7v2.1H53v20.9h-2.1V164h-4.7v-2.1H50.9z"/>
<path class="st0" d="M65.4,171.9v13h-2.1v-37.5h9.8c2.8,0.3,5.3,1.6,7.3,3.6c4.8,4.8,4.8,12.5,0,17.3c-2.3,2.3-5.4,3.6-8.6,3.6
	L65.4,171.9z M65.4,149.5v20.2h6.4c5.6,0,10.1-4.5,10.1-10.1s-4.5-10.1-10.1-10.1H65.4z"/>
<path class="st0" d="M91,180.6c4.2,3.8,10.6,3.6,14.6-0.4c0.3-0.3,0.5-0.5,0.8-0.8l2.2,0.8c-0.4,0.6-0.9,1.1-1.4,1.6
	c-5,5-13.2,5-18.2-0.1c-5-5-5-13.2,0.1-18.2c4.6-4.6,11.9-5,17-1c0.4,0.3,0.8,0.7,1.1,1l0.4,0.4l-1.6,1.6L91,180.6z M104.4,164.2
	c-4.8-3.4-11.4-2.4-14.8,2.4c-2.7,3.7-2.7,8.8,0,12.5L104.4,164.2z"/>
<path class="st0" d="M139.1,184.9H137v-4.7c-0.4,0.6-0.9,1.1-1.3,1.6c-5,5-13.2,5-18.2,0s-5-13.2,0-18.2s13.2-5,18.2,0c0,0,0,0,0,0
	c0.5,0.5,0.9,1,1.3,1.6v-3.3h2.1L139.1,184.9z M137,174.8v-4.2c-1.2-5.7-6.7-9.4-12.4-8.2c-5.7,1.2-9.4,6.7-8.2,12.4
	s6.7,9.4,12.4,8.2C132.9,182.2,136.2,178.9,137,174.8z"/>
<path class="st0" d="M165.8,179.4l2.2,0.8c-0.4,0.6-0.9,1.1-1.4,1.6c-5,5-13.2,5-18.2,0s-5-13.2,0-18.2s13.2-5,18.2,0c0,0,0,0,0,0
	c0.5,0.5,1,1,1.4,1.6l-2.2,0.8c-0.2-0.3-0.5-0.6-0.8-0.8c-4.1-4.2-10.9-4.2-15,0s-4.2,10.9,0,15s10.9,4.2,15,0c0,0,0,0,0,0
	C165.4,179.9,165.6,179.6,165.8,179.4z"/>
<path class="st0" d="M178.1,180.6c1.9,1.8,4.5,2.8,7.1,2.7c2.8,0,5.6-1.1,7.5-3.1c0.3-0.3,0.5-0.5,0.8-0.8l2.2,0.8
	c-0.4,0.6-0.9,1.1-1.4,1.6c-5,5-13.2,5-18.2-0.1c-5-5-5-13.2,0.1-18.2c4.6-4.6,11.9-5,17-1c0.4,0.3,0.8,0.7,1.1,1
	c0.1,0.1,0.3,0.3,0.4,0.4l-1.6,1.6L178.1,180.6z M191.5,164.2c-4.7-3.5-11.4-2.5-14.9,2.3c-2.8,3.7-2.8,8.8,0,12.6L191.5,164.2z"/>
<path class="st0" d="M207.6,173.1c-1.3-0.7-2.6-1.5-3.7-2.5c-1.1-1-1.6-2.4-1.6-3.9c0-1.5,0.6-2.9,1.6-3.9c1-1.1,2.4-1.7,3.9-1.6
	c1.4,0,2.8,0.5,3.8,1.5c0.9,0.9,1.4,2.1,1.4,3.4v0.1l-1.8,0.7c-0.1-1-0.5-1.9-1.1-2.7c-0.6-0.6-1.4-0.9-2.3-0.9
	c-1.9,0-3.4,1.5-3.4,3.4c0,0.9,0.4,1.8,1,2.4c0.8,0.7,1.6,1.3,2.5,1.8c1.5,0.8,3,1.7,4.3,2.9c2.7,2.7,2.7,7,0,9.7
	c-2.7,2.7-7,2.7-9.7,0l0,0c-1.2-1.1-2-2.7-2-4.4l2.1-0.5c0,1.3,0.5,2.5,1.4,3.4c1.9,1.8,4.8,1.8,6.7,0c1.8-1.9,1.8-4.8,0-6.7l0,0
	C209.7,174.5,208.7,173.7,207.6,173.1z"/>
<path class="st0" d="M119.7,134.8c-19.8-0.2-38.8-7.8-53.4-21.2l53.4-53.4V134.8z"/>
<path class="st0" d="M39.2,56.2C39.4,76,47,95,60.4,109.6l53.4-53.4H39.2z"/>
<path class="st0" d="M165,16.9c17.7,20.3,15.5,51.1-4.8,68.7c-8,6.9-18,11.1-28.5,11.8V50.3L165,16.9z"/>
<path class="st0" d="M126.8,45.3H79.5c1.9-26.8,25.2-47.1,52-45.2C142,0.9,152.1,5,160.1,12L126.8,45.3z"/>
</svg>
