<?xml version="1.0" encoding="utf-8"?>
<!-- Generator: Adobe Illustrator 23.0.6, SVG Export Plug-In . SVG Version: 6.00 Build 0)  -->
<svg version="1.1" id="Layer_1" xmlns="http://www.w3.org/2000/svg" xmlns:xlink="http://www.w3.org/1999/xlink" x="0px" y="0px"
	 viewBox="0 0 400 400" style="enable-background:new 0 0 400 400;" xml:space="preserve">
<style type="text/css">
	.st0{fill:#292FE5;}
</style>
<g>
	<path class="st0" d="M95.9,289.3H80l-6.4,17.6h-2.8l17.1-47l17,47h-2.7L95.9,289.3z M95,286.7l-7-19.3l-7,19.3H95z"/>
	<path class="st0" d="M110.8,278.7h2.6v5.1c0.6-0.8,1.2-1.5,1.9-2.2c1.8-2.1,4.3-3.3,7.1-3.6v2.8c-2,0.2-3.8,1.2-5,2.7
		c-2.4,2.3-3.8,5.4-3.9,8.7v14.6h-2.6V278.7z"/>
	<path class="st0" d="M133.1,278.7v-12h2.6v12h5.7v2.6h-5.7v25.6h-2.6v-25.6h-5.7v-2.6H133.1z"/>
	<path class="st0" d="M150.9,291v15.9h-2.6V261h12.1c3.4,0.4,6.5,2,8.9,4.4c5.9,5.9,5.9,15.4,0,21.2c-2.8,2.8-6.6,4.4-10.6,4.4
		L150.9,291z M150.9,263.6v24.8h7.8c6.8,0,12.4-5.5,12.4-12.4s-5.5-12.4-12.4-12.4H150.9z"/>
	<path class="st0" d="M182.3,301.6c5.1,4.6,13,4.4,17.9-0.5c0.3-0.3,0.6-0.7,0.9-1l2.7,1c-0.5,0.7-1.1,1.4-1.7,2
		c-6.2,6.1-16.1,6.1-22.3-0.1c-6.1-6.2-6.1-16.1,0.1-22.3c5.6-5.6,14.6-6.1,20.8-1.2c0.5,0.4,0.9,0.8,1.4,1.2l0.5,0.5l-2,1.9
		L182.3,301.6z M198.8,281.5c-5.8-4.2-14-2.9-18.2,2.9c-3.3,4.6-3.3,10.7,0,15.3L198.8,281.5z"/>
	<path class="st0" d="M241.2,306.9h-2.5v-5.7c-0.5,0.7-1.1,1.3-1.6,1.9c-6.2,6.2-16.2,6.2-22.3,0c-6.2-6.2-6.2-16.2,0-22.3
		c6.2-6.2,16.2-6.2,22.3,0c0,0,0,0,0,0c0.6,0.6,1.1,1.2,1.6,1.9v-4h2.6L241.2,306.9z M238.6,294.5v-5.1c-1.4-7-8.2-11.5-15.2-10.1
		c-7,1.4-11.5,8.2-10.1,15.2s8.2,11.5,15.2,10.1C233.6,303.5,237.6,299.6,238.6,294.5z"/>
	<path class="st0" d="M273.9,300.1l2.7,1c-0.5,0.7-1.1,1.4-1.7,2c-6.2,6.2-16.2,6.2-22.3,0c-6.2-6.2-6.2-16.2,0-22.3
		s16.2-6.2,22.3,0c0,0,0,0,0,0c0.6,0.6,1.2,1.3,1.7,1.9l-2.7,1c-0.3-0.3-0.6-0.7-0.9-1c-5.1-5.1-13.3-5.1-18.4-0.1
		c-5.1,5.1-5.1,13.3-0.1,18.4s13.3,5.1,18.4,0.1c0,0,0,0,0.1-0.1C273.3,300.8,273.6,300.5,273.9,300.1z"/>
	<path class="st0" d="M288.9,301.6c2.4,2.2,5.5,3.4,8.7,3.3c3.5,0.1,6.8-1.3,9.2-3.8c0.3-0.3,0.6-0.7,0.9-1l2.7,1
		c-0.5,0.7-1.1,1.4-1.7,2c-6.2,6.1-16.1,6.1-22.3-0.1c-6.1-6.2-6.1-16.1,0.1-22.3c5.6-5.6,14.6-6.1,20.8-1.2
		c0.5,0.4,0.9,0.8,1.4,1.2c0.2,0.2,0.3,0.3,0.5,0.5l-1.9,1.9L288.9,301.6z M305.4,281.5c-5.8-4.3-13.9-3-18.2,2.8
		c-3.4,4.6-3.4,10.8,0,15.4L305.4,281.5z"/>
	<path class="st0" d="M325.1,292.4c-1.7-0.8-3.2-1.8-4.6-3c-1.3-1.2-2-3-2-4.8c0-1.8,0.7-3.5,2-4.8c1.2-1.3,3-2,4.8-2
		c1.7-0.1,3.4,0.6,4.7,1.8c1.1,1.1,1.8,2.6,1.8,4.1v0.1l-2.2,0.9c-0.1-1.2-0.6-2.4-1.4-3.3c-0.8-0.7-1.8-1.1-2.8-1.1
		c-2.3,0-4.2,1.9-4.2,4.2c0,1.1,0.4,2.2,1.2,3c0.9,0.8,2,1.5,3,2.2c1.9,0.9,3.7,2.1,5.2,3.6c3.3,3.3,3.3,8.6,0,11.8
		c-3.3,3.3-8.6,3.3-11.8,0l0,0c-1.5-1.4-2.4-3.3-2.4-5.4l2.6-0.7c0,1.6,0.6,3.1,1.7,4.2c2.3,2.3,5.9,2.3,8.2,0
		c2.3-2.3,2.3-5.9,0-8.2l0,0C327.6,294.1,326.4,293.2,325.1,292.4z"/>
	<path class="st0" d="M217.4,245.5c-24.3-0.3-47.6-9.5-65.4-26l65.4-65.4V245.5z"/>
	<path class="st0" d="M118.9,149.3c0.3,24.3,9.5,47.6,26,65.4l65.4-65.4H118.9z"/>
	<path class="st0" d="M272.9,101.2c21.6,24.9,19,62.5-5.9,84.2c-9.8,8.5-22,13.6-34.9,14.5v-57.8L272.9,101.2z"/>
	<path class="st0" d="M226.1,136h-57.9c2.3-32.9,30.8-57.6,63.7-55.3c12.9,0.9,25.2,6,35,14.5L226.1,136z"/>
</g>
</svg>
