<?xml version="1.0" encoding="utf-8"?>
<!-- Generator: Adobe Illustrator 23.0.6, SVG Export Plug-In . SVG Version: 6.00 Build 0)  -->
<svg version="1.1" id="Layer_1" xmlns="http://www.w3.org/2000/svg" xmlns:xlink="http://www.w3.org/1999/xlink" x="0px" y="0px"
	 viewBox="0 0 262.1 227.2" style="enable-background:new 0 0 262.1 227.2;" xml:space="preserve">
<style type="text/css">
	.st0{fill:#292FE5;}
</style>
<g>
	<path class="st0" d="M25.1,208.8h-16l-6.4,17.6H0l17.1-47l17,47h-2.7L25.1,208.8z M24.1,206.2l-7-19.3l-7,19.3H24.1z"/>
	<path class="st0" d="M39.9,198.2h2.6v5.1c0.6-0.8,1.2-1.5,1.9-2.2c1.8-2.1,4.3-3.3,7.1-3.6v2.8c-2,0.2-3.8,1.2-5,2.7
		c-2.4,2.3-3.8,5.4-3.9,8.7v14.6H40L39.9,198.2L39.9,198.2z"/>
	<path class="st0" d="M62.3,198.2v-12h2.6v12h5.7v2.6h-5.7v25.6h-2.6v-25.6h-5.7v-2.6H62.3z"/>
	<path class="st0" d="M80.1,210.5v15.9h-2.6v-45.9h12.1c3.4,0.4,6.5,2,8.9,4.4c5.9,5.9,5.9,15.4,0,21.2c-2.8,2.8-6.6,4.4-10.6,4.4
		L80.1,210.5z M80.1,183.1v24.8h7.8c6.8,0,12.4-5.5,12.4-12.4c0-6.8-5.5-12.4-12.4-12.4L80.1,183.1L80.1,183.1z"/>
	<path class="st0" d="M111.4,221.1c5.1,4.6,13,4.4,17.9-0.5c0.3-0.3,0.6-0.7,0.9-1l2.7,1c-0.5,0.7-1.1,1.4-1.7,2
		c-6.2,6.1-16.1,6.1-22.3-0.1c-6.1-6.2-6.1-16.1,0.1-22.3c5.6-5.6,14.6-6.1,20.8-1.2c0.5,0.4,0.9,0.8,1.4,1.2l0.5,0.5l-2,1.9
		L111.4,221.1z M127.9,201c-5.8-4.2-14-2.9-18.2,2.9c-3.3,4.6-3.3,10.7,0,15.3L127.9,201z"/>
	<path class="st0" d="M170.3,226.4h-2.5v-5.7c-0.5,0.7-1.1,1.3-1.6,1.9c-6.2,6.2-16.2,6.2-22.3,0c-6.2-6.2-6.2-16.2,0-22.3
		s16.2-6.2,22.3,0l0,0c0.6,0.6,1.1,1.2,1.6,1.9v-4h2.6L170.3,226.4z M167.7,214v-5.1c-1.4-7-8.2-11.5-15.2-10.1S141,207,142.4,214
		s8.2,11.5,15.2,10.1C162.7,223,166.7,219.1,167.7,214z"/>
	<path class="st0" d="M203.1,219.6l2.7,1c-0.5,0.7-1.1,1.4-1.7,2c-6.2,6.2-16.2,6.2-22.3,0c-6.2-6.2-6.2-16.2,0-22.3
		c6.2-6.2,16.2-6.2,22.3,0l0,0c0.6,0.6,1.2,1.3,1.7,1.9l-2.7,1c-0.3-0.3-0.6-0.7-0.9-1c-5.1-5.1-13.3-5.1-18.4-0.1
		c-5.1,5.1-5.1,13.3-0.1,18.4c5.1,5.1,13.3,5.1,18.4,0.1c0,0,0,0,0.1-0.1C202.5,220.3,202.8,220,203.1,219.6z"/>
	<path class="st0" d="M218,221.1c2.4,2.2,5.5,3.4,8.7,3.3c3.5,0.1,6.8-1.3,9.2-3.8c0.3-0.3,0.6-0.7,0.9-1l2.7,1
		c-0.5,0.7-1.1,1.4-1.7,2c-6.2,6.1-16.1,6.1-22.3-0.1c-6.1-6.2-6.1-16.1,0.1-22.3c5.6-5.6,14.6-6.1,20.8-1.2
		c0.5,0.4,0.9,0.8,1.4,1.2c0.2,0.2,0.3,0.3,0.5,0.5l-1.9,1.9L218,221.1z M234.5,201c-5.8-4.3-13.9-3-18.2,2.8
		c-3.4,4.6-3.4,10.8,0,15.4L234.5,201z"/>
	<path class="st0" d="M254.2,211.9c-1.7-0.8-3.2-1.8-4.6-3c-1.3-1.2-2-3-2-4.8s0.7-3.5,2-4.8c1.2-1.3,3-2,4.8-2
		c1.7-0.1,3.4,0.6,4.7,1.8c1.1,1.1,1.8,2.6,1.8,4.1v0.1l-2.2,0.9c-0.1-1.2-0.6-2.4-1.4-3.3c-0.8-0.7-1.8-1.1-2.8-1.1
		c-2.3,0-4.2,1.9-4.2,4.2c0,1.1,0.4,2.2,1.2,3c0.9,0.8,2,1.5,3,2.2c1.9,0.9,3.7,2.1,5.2,3.6c3.3,3.3,3.3,8.6,0,11.8
		c-3.3,3.3-8.6,3.3-11.8,0l0,0c-1.5-1.4-2.4-3.3-2.4-5.4l2.6-0.7c0,1.6,0.6,3.1,1.7,4.2c2.3,2.3,5.9,2.3,8.2,0
		c2.3-2.3,2.3-5.9,0-8.2l0,0C256.7,213.6,255.5,212.7,254.2,211.9z"/>
	<path class="st0" d="M146.6,165c-24.3-0.3-47.6-9.5-65.4-26l65.4-65.4V165z"/>
	<path class="st0" d="M48,68.8c0.3,24.3,9.5,47.6,26,65.4l65.4-65.4C139.4,68.8,48,68.8,48,68.8z"/>
	<path class="st0" d="M202,20.7c21.6,24.9,19,62.5-5.9,84.2c-9.8,8.5-22,13.6-34.9,14.5V61.6L202,20.7z"/>
	<path class="st0" d="M155.2,55.5H97.3C99.6,22.6,128.1-2.2,161,0.1c12.9,0.9,25.2,6,35,14.5L155.2,55.5z"/>
</g>
</svg>
