<svg id="Layer_1" data-name="Layer 1" xmlns="http://www.w3.org/2000/svg" viewBox="0 0 214.1 185.56"><defs><style>.cls-1{fill:#fff;}</style></defs><title>artPeacesLogo</title><path class="cls-1" d="M20.46,170.54h-13L2.25,184.9H0l14-38.36L27.91,184.9H25.69Zm-.77-2.11L14,152.7,8.25,168.43Z"/><path class="cls-1" d="M32.6,161.89h2.11v4.19a14.8,14.8,0,0,1,1.52-1.8A8.76,8.76,0,0,1,42,161.35v2.3a6.48,6.48,0,0,0-4.12,2.22A10.16,10.16,0,0,0,34.71,173V184.9H32.6Z"/><path class="cls-1" d="M50.86,161.89v-9.8H53v9.8h4.69V164H53v20.9H50.86V164H46.17v-2.11Z"/><path class="cls-1" d="M65.39,171.9v13H63.28V147.4h9.85A12.41,12.41,0,0,1,80.41,151a12.25,12.25,0,0,1-8.64,20.91Zm0-22.36v20.22h6.38a10.11,10.11,0,0,0,0-20.22Z"/><path class="cls-1" d="M91,180.59a10.6,10.6,0,0,0,14.6-.4,9.58,9.58,0,0,0,.75-.82l2.23.8a14.81,14.81,0,0,1-1.38,1.62,12.86,12.86,0,1,1-1.13-19.25c.38.32.75.66,1.13,1l.4.42-1.6,1.59Zm13.45-16.43A10.63,10.63,0,0,0,89.6,179Z"/><path class="cls-1" d="M139.08,184.9H137v-4.68a16.37,16.37,0,0,1-1.34,1.57,12.89,12.89,0,1,1,0-18.21,15.24,15.24,0,0,1,1.34,1.57v-3.26h2.11ZM137,174.78v-4.17a10.52,10.52,0,1,0,0,4.17Z"/><path class="cls-1" d="M165.84,179.37l2.23.8a14.81,14.81,0,0,1-1.38,1.62,12.89,12.89,0,1,1,0-18.21,14.54,14.54,0,0,1,1.38,1.59l-2.23.82q-.34-.42-.75-.84a10.64,10.64,0,1,0,0,15A9.58,9.58,0,0,0,165.84,179.37Z"/><path class="cls-1" d="M178.08,180.59a10.14,10.14,0,0,0,7.08,2.72,10.25,10.25,0,0,0,7.52-3.12,9.58,9.58,0,0,0,.75-.82l2.23.8a13.88,13.88,0,0,1-1.39,1.62,12.86,12.86,0,1,1-1.12-19.25c.37.32.75.66,1.12,1,.14.14.28.28.4.42l-1.59,1.59Zm13.45-16.43A10.63,10.63,0,0,0,176.65,179Z"/><path class="cls-1" d="M207.61,173.07a17,17,0,0,1-3.73-2.49,5.27,5.27,0,0,1-1.61-3.89,5.34,5.34,0,0,1,1.61-3.92,5.28,5.28,0,0,1,3.89-1.63,5.15,5.15,0,0,1,3.8,1.5A4.64,4.64,0,0,1,213,166v.12l-1.82.72a4.58,4.58,0,0,0-1.12-2.67,3.1,3.1,0,0,0-2.31-.89,3.42,3.42,0,0,0-2.41,5.84,16.9,16.9,0,0,0,2.48,1.78,19.54,19.54,0,0,1,4.27,2.9,6.83,6.83,0,1,1-9.66,9.67,6.15,6.15,0,0,1-2-4.39l2.09-.54a4.64,4.64,0,0,0,1.39,3.44,4.73,4.73,0,1,0,6.69-6.7A20.1,20.1,0,0,0,207.61,173.07Z"/><path class="cls-1" d="M119.7,134.79a80.15,80.15,0,0,1-53.41-21.22l53.41-53.4Z"/><path class="cls-1" d="M39.22,56.17a80,80,0,0,0,21.21,53.4l53.41-53.4Z"/><path class="cls-1" d="M165,16.92a48.72,48.72,0,0,1-33.35,80.56V50.28Z"/><path class="cls-1" d="M126.75,45.3H79.46A48.71,48.71,0,0,1,160.06,12Z"/></svg>